<svg aria-hidden="true" style="position: absolute; width: 0; height: 0; overflow: hidden;" version="1.1" xmlns="http://www.w3.org/2000/svg" xmlns:xlink="http://www.w3.org/1999/xlink">
<defs>
<symbol id="icon-wallet" viewBox="0 0 32 32">
<path d="M28.606 18.424h-4.849c-0.535 0-0.97 0.434-0.97 0.97v3.879c0 0.536 0.434 0.97 0.97 0.97h4.849v4.848c0 0.536-0.434 0.97-0.97 0.97h-23.273c-0.535 0-0.97-0.433-0.97-0.97v-18.424h24.242c0.535 0 0.97 0.433 0.97 0.97v6.788zM28.606 21.333v0.97h-3.879v-1.939h3.879v0.97zM26.667 2.909v5.818h-18.909l18.909-5.818zM28.606 8.727v-6.788c0-0.536-0.229-0.833-0.727-1.030-0.384-0.152-0.757-0.061-1.212 0.060l-25.212 7.758v21.333c0 1.071 0.869 1.939 1.939 1.939h25.212c1.071 0 1.939-0.869 1.939-1.939v-19.394c0-1.071-0.869-1.939-1.939-1.939v0z"></path>
</symbol>
<symbol id="icon-x-mark" viewBox="0 0 32 32">
<path d="M7.293 7.293c0.391-0.391 1.024-0.391 1.414 0l7.293 7.293 7.293-7.293c0.391-0.391 1.024-0.391 1.414 0s0.391 1.024 0 1.414l-7.293 7.293 7.293 7.293c0.391 0.391 0.391 1.024 0 1.414s-1.024 0.391-1.414 0l-7.293-7.293-7.293 7.293c-0.391 0.391-1.024 0.391-1.414 0s-0.391-1.024 0-1.414l7.293-7.293-7.293-7.293c-0.391-0.391-0.391-1.024 0-1.414z"></path>
</symbol>
<symbol id="icon-sphere" viewBox="0 0 32 32">
<path d="M15 2c-8.284 0-15 6.716-15 15s6.716 15 15 15c8.284 0 15-6.716 15-15s-6.716-15-15-15zM23.487 22c0.268-1.264 0.437-2.606 0.492-4h3.983c-0.104 1.381-0.426 2.722-0.959 4h-3.516zM6.513 12c-0.268 1.264-0.437 2.606-0.492 4h-3.983c0.104-1.381 0.426-2.722 0.959-4h3.516zM21.439 12c0.3 1.28 0.481 2.62 0.54 4h-5.979v-4h5.439zM16 10v-5.854c0.456 0.133 0.908 0.355 1.351 0.668 0.831 0.586 1.625 1.488 2.298 2.609 0.465 0.775 0.867 1.638 1.203 2.578h-4.852zM10.351 7.422c0.673-1.121 1.467-2.023 2.298-2.609 0.443-0.313 0.895-0.535 1.351-0.668v5.854h-4.852c0.336-0.94 0.738-1.803 1.203-2.578zM14 12v4h-5.979c0.059-1.38 0.24-2.72 0.54-4h5.439zM2.997 22c-0.533-1.278-0.854-2.619-0.959-4h3.983c0.055 1.394 0.224 2.736 0.492 4h-3.516zM8.021 18h5.979v4h-5.439c-0.3-1.28-0.481-2.62-0.54-4zM14 24v5.854c-0.456-0.133-0.908-0.355-1.351-0.668-0.831-0.586-1.625-1.488-2.298-2.609-0.465-0.775-0.867-1.638-1.203-2.578h4.852zM19.649 26.578c-0.673 1.121-1.467 2.023-2.298 2.609-0.443 0.312-0.895 0.535-1.351 0.668v-5.854h4.852c-0.336 0.94-0.738 1.802-1.203 2.578zM16 22v-4h5.979c-0.059 1.38-0.24 2.72-0.54 4h-5.439zM23.98 16c-0.055-1.394-0.224-2.736-0.492-4h3.516c0.533 1.278 0.855 2.619 0.959 4h-3.983zM25.958 10h-2.997c-0.582-1.836-1.387-3.447-2.354-4.732 1.329 0.636 2.533 1.488 3.585 2.54 0.671 0.671 1.261 1.404 1.766 2.192zM5.808 7.808c1.052-1.052 2.256-1.904 3.585-2.54-0.967 1.285-1.771 2.896-2.354 4.732h-2.997c0.504-0.788 1.094-1.521 1.766-2.192zM4.042 24h2.997c0.583 1.836 1.387 3.447 2.354 4.732-1.329-0.636-2.533-1.488-3.585-2.54-0.671-0.671-1.261-1.404-1.766-2.192zM24.192 26.192c-1.052 1.052-2.256 1.904-3.585 2.54 0.967-1.285 1.771-2.896 2.354-4.732h2.997c-0.504 0.788-1.094 1.521-1.766 2.192z"></path>
</symbol>
<symbol id="icon-google" viewBox="0 0 32 32">
<path d="M16.319 13.713v5.487h9.075c-0.369 2.356-2.744 6.9-9.075 6.9-5.463 0-9.919-4.525-9.919-10.1s4.456-10.1 9.919-10.1c3.106 0 5.188 1.325 6.375 2.469l4.344-4.181c-2.788-2.612-6.4-4.188-10.719-4.188-8.844 0-16 7.156-16 16s7.156 16 16 16c9.231 0 15.363-6.494 15.363-15.631 0-1.050-0.113-1.85-0.25-2.65l-15.113-0.006z"></path>
</symbol>
<symbol id="icon-menu" viewBox="0 0 46 32">
<path d="M0.444 2.778c0-1.043 0.846-1.889 1.889-1.889h41.556c1.043 0 1.889 0.846 1.889 1.889s-0.846 1.889-1.889 1.889h-41.556c-1.043 0-1.889-0.846-1.889-1.889zM0.444 16c0-1.043 0.846-1.889 1.889-1.889h41.556c1.043 0 1.889 0.846 1.889 1.889s-0.846 1.889-1.889 1.889h-41.556c-1.043 0-1.889-0.846-1.889-1.889zM21.222 29.222c0-1.043 0.846-1.889 1.889-1.889h20.778c1.043 0 1.889 0.846 1.889 1.889s-0.846 1.889-1.889 1.889h-20.778c-1.043 0-1.889-0.846-1.889-1.889z"></path>
</symbol>
</defs>
</svg>
